<svg width="144" height="144" viewBox="0 0 144 144" fill="none" xmlns="http://www.w3.org/2000/svg">
<path d="M103.17 12.3933C91.1571 12.3292 79.7376 17.6047 71.9998 26.7932C64.3106 17.5419 52.8593 12.2513 40.8302 12.3933C18.2802 12.3933 0 30.6735 0 53.2235C0 91.8668 67.4429 129.598 70.1772 131.056C71.2804 131.794 72.7192 131.794 73.8228 131.056C76.5571 129.598 144 92.4135 144 53.2235C144 30.6735 125.719 12.3933 103.17 12.3933ZM71.9998 123.765C61.4277 117.568 7.29115 84.5756 7.29115 53.2235C7.29115 34.7005 22.3071 19.6841 40.8305 19.6841C52.1737 19.5352 62.7891 25.2566 68.9013 34.8132C70.1423 36.5245 72.5361 36.9058 74.2474 35.6644C74.5743 35.4272 74.8618 35.1401 75.0987 34.8132C85.2357 19.3101 106.021 14.9601 121.524 25.0972C131.015 31.3029 136.727 41.8838 136.709 53.2231C136.709 84.9399 82.572 117.75 71.9998 123.765Z" fill="black"/>
</svg>
